<?xml version="1.0" encoding="utf-8"?>
<!-- Generator: Adobe Illustrator 16.0.3, SVG Export Plug-In . SVG Version: 6.00 Build 0)  -->
<!DOCTYPE svg PUBLIC "-//W3C//DTD SVG 1.1//EN" "http://www.w3.org/Graphics/SVG/1.1/DTD/svg11.dtd">
<svg version="1.1" id="Capa_1" xmlns="http://www.w3.org/2000/svg" xmlns:xlink="http://www.w3.org/1999/xlink" x="0px" y="0px"
	 width="299.008px" height="234px" viewBox="0 0 299.008 234" enable-background="new 0 0 299.008 234" xml:space="preserve">
<g>
	<g>
		<path fill-rule="evenodd" clip-rule="evenodd" fill="#7C7B7B" d="M84.359,167.829c-3.753,0.007-10.356-0.954-16.852-2.696
			c-1.035-0.278-1.541-0.616-1.435-1.903c1.056-13.021,2.589-25.98,5.211-38.791c2.231-10.941,5.043-21.738,9.904-31.864
			c2.559-5.336,5.644-10.318,10.276-14.14c3.599-2.965,3.599-2.942,5.711,1.063c11.154,21.059,18.857,43.297,22.864,66.797
			c0.649,3.729,1.038,7.488,1.622,11.233c0.221,1.449-0.149,2.22-1.578,2.902C109.702,165.331,98.801,167.836,84.359,167.829z"/>
		<path fill-rule="evenodd" clip-rule="evenodd" fill="#7C7B7B" d="M61.435,163.148c-0.454-0.174-0.871-0.328-1.279-0.501
			c-17.769-7.195-30.95-19.381-39.68-36.435c-0.632-1.229-0.693-2.249-0.162-3.542c5.596-13.65,14.06-25.329,24.519-35.63
			c11.488-11.276,24.793-19.839,39.526-26.233c1.059-0.464,1.639-0.45,2.276,0.614c1.942,3.318,3.981,6.583,6.003,9.868
			c0.365,0.604,0.78,1.074-0.21,1.618c-5.453,2.979-9.161,7.654-12.241,12.879c-5.497,9.348-8.656,19.586-11.172,30.029
			c-3.346,13.83-5.348,27.859-6.522,42.021c-0.109,1.453-0.229,2.908-0.36,4.339C62.095,162.641,62.245,163.29,61.435,163.148z"/>
		<path fill-rule="evenodd" clip-rule="evenodd" fill="#7C7B7B" d="M109.059,73.457c12.056,0.377,23.097,4.977,32.854,12.842
			c7.648,6.159,13.467,13.8,17.93,22.486c0.408,0.785,0.456,1.459,0.235,2.326c-5.036,19.393-16.038,34.436-32.832,45.298
			c-1.137,0.736-1.6,0.884-1.792-0.765c-2.645-22.729-8.945-44.424-18.361-65.245c-2.239-4.946-4.615-9.818-7.258-14.554
			c-0.589-1.074-0.285-1.372,0.729-1.565C103.181,73.798,105.8,73.463,109.059,73.457z"/>
		<path fill-rule="evenodd" clip-rule="evenodd" fill="#7C7B7B" d="M17.384,118.85c-2.114-5.507-3.376-10.811-4.012-16.241
			c-1.7-14.293,0.316-28.038,6.374-41.151c0.632-1.377,1.489-2.163,2.931-2.639c5.898-1.973,11.833-3.153,18.151-2.939
			c12.18,0.416,23.978-1.988,35.297-6.464c1.44-0.557,2.102-0.33,2.849,0.875c1.014,1.603,2.177,3.105,3.266,4.649
			c1.247,1.781,1.247,1.781-0.828,2.714C70.28,62.607,59.908,68.784,50.479,76.513c-13.824,11.332-24.884,24.835-32.453,41.113
			C17.896,117.906,17.748,118.176,17.384,118.85z"/>
		<path fill-rule="evenodd" clip-rule="evenodd" fill="#7C7B7B" d="M161.575,103.325c-3.18-5.23-6.38-9.736-10.201-13.788
			c-9.51-10.04-20.862-16.828-34.561-19.35c-6.079-1.112-12.18-1.144-18.204,0.402c-1.154,0.301-1.68-0.007-2.249-0.971
			c-1.866-3.215-3.771-6.404-5.8-9.533c-0.766-1.169-0.656-1.564,0.669-2.053c9.841-3.636,19.942-6.308,30.268-8.099
			c7.705-1.356,15.483-2.24,23.291-2.728c1.293-0.08,2.06,0.334,2.8,1.367C158.273,63.2,163.026,79.58,162.148,97.62
			C162.067,99.351,161.804,101.076,161.575,103.325z"/>
		<path fill-rule="evenodd" clip-rule="evenodd" fill="#7C7B7B" d="M142.915,43.151c-3.463,0.365-6.777,0.672-10.079,1.044
			c-14.849,1.646-29.342,4.854-43.313,10.202c-1.583,0.598-2.549,0.619-3.451-1.045c-0.965-1.755-2.227-3.383-3.476-4.952
			c-0.84-1.052-0.771-1.547,0.47-2.176c4.299-2.182,8.224-4.934,11.809-8.143c1.337-1.188,2.454-2.504,3.35-4.054
			c2.362-4.1,4.886-8.114,7.537-12.029c0.562-0.845,1.076-1.198,2.134-0.889c13.452,3.939,24.989,10.999,34.521,21.275
			C142.574,42.563,142.68,42.786,142.915,43.151z"/>
		<path fill-rule="evenodd" clip-rule="evenodd" fill="#7C7B7B" d="M23.777,54.089c3.116-5.195,6.713-9.646,10.751-13.713
			c6.157-6.196,13.187-11.136,21.05-14.913c1.078-0.512,1.719-0.464,2.598,0.402C63.976,31.595,69.25,37.792,74.35,44.14
			c0.902,1.131,0.557,1.467-0.611,1.892c-11.005,4.03-22.314,6.221-34.075,5.731c-4.723-0.192-9.299,0.507-13.823,1.78
			C25.26,53.71,24.667,53.858,23.777,54.089z"/>
		<path fill-rule="evenodd" clip-rule="evenodd" fill="#7C7B7B" d="M61.286,23.125c4.681-1.879,9.379-3.073,14.166-3.826
			c8.413-1.317,16.828-1.294,25.243,0.19c1.552,0.272,1.39,0.656,0.693,1.733c-2.38,3.714-4.673,7.479-7.006,11.232
			c-1.261,2.036-3.171,3.402-4.984,4.859c-2.805,2.269-5.885,4.131-9.098,5.774c-0.644,0.334-1.188,0.637-1.781-0.148
			C73.244,35.998,67.507,29.463,61.286,23.125z"/>
	</g>
</g>
<g>
	<path fill-rule="evenodd" clip-rule="evenodd" fill="#7C7B7B" d="M173.044,89.118c1.265-27.227,23.474-50.483,52.073-51.998
		c-1.788,10.324-6.256,19.333-12.633,27.474C200.507,79.894,184.244,87.632,173.044,89.118z"/>
	<path fill-rule="evenodd" clip-rule="evenodd" fill="#7C7B7B" d="M173.264,98.63c1.685-0.343,3.268-0.639,4.853-0.984
		c6.335-1.351,12.28-3.752,17.946-6.863c4.876-2.688,9.378-5.917,13.559-9.583c3.952-3.453,7.525-7.276,10.74-11.436
		c3.897-5.044,7.147-10.479,9.622-16.343c2.047-4.844,3.549-9.855,4.298-15.072c0.108-0.759,0.305-0.98,1.153-0.873
		c4.49,0.599,8.833,1.743,13.038,3.393c5.672,2.219,10.844,5.317,15.471,9.251c4.194,3.558,7.789,7.674,10.755,12.344
		c2.845,4.454,5.043,9.188,6.502,14.236c0.858,2.993,1.37,6.083,2.068,9.232c-15.984,2.495-29.19,9.883-40.367,21.051
		c-11.153,11.148-18.545,24.325-21.035,40.176c-11.197-1.295-21.121-5.565-29.602-12.883
		C181.394,124.893,175.098,112.956,173.264,98.63z"/>
	<path fill-rule="evenodd" clip-rule="evenodd" fill="#7C7B7B" d="M231.24,147.457c2.018-11.505,7.231-21.345,14.707-30.028
		c12.018-13.962,27.055-20.598,37.292-21.997C282.845,118.511,263.433,145.479,231.24,147.457z"/>
</g>
<g>
	<circle fill="#FFFFFF" cx="157.768" cy="148.741" r="77.548"/>
	<g>
		<path fill-rule="evenodd" clip-rule="evenodd" fill="#7C7B7B" d="M79.331,152.992c0-2.834,0-5.675,0-8.509
			c0.086-0.577,0.211-1.141,0.258-1.712c0.846-10.439,3.572-20.359,8.347-29.684c4.715-9.274,11.078-17.238,18.982-24.005
			c7.526-6.438,15.979-11.318,25.363-14.509c10.193-3.446,20.676-4.893,31.443-4.026c10.409,0.849,20.298,3.522,29.583,8.279
			c9.26,4.702,17.238,11.045,24.027,18.924c6.476,7.524,11.371,15.965,14.559,25.336c3.777,11.131,5.157,22.571,3.81,34.312
			c-1.422,12.229-5.356,23.57-12.062,33.883c-6.306,9.729-14.36,17.718-24.228,23.875c-9.662,6.056-20.114,9.822-31.431,11.277
			c-1.976,0.252-3.959,0.508-5.944,0.748c-2.842,0-5.675,0-8.511,0c-0.318-0.077-0.642-0.171-0.974-0.223
			c-4.073-0.598-8.201-0.995-12.228-1.847c-10.675-2.269-20.384-6.82-29.136-13.305c-7.968-5.919-14.642-13.092-19.907-21.55
			c-5.933-9.543-9.675-19.841-11.156-30.939C79.841,157.206,79.601,155.089,79.331,152.992z M170.848,196.387
			c7.247-0.449,14.47-1.178,21.631-2.435c0.981-0.179,1.649-0.474,2.125-1.4c5.309-9.988,10.647-19.939,15.945-29.915
			c0.192-0.35,0.186-0.982,0-1.335c-3.313-6.654-7.256-12.93-11.185-19.241c-1.62-2.591-3.174-3.356-6.243-2.977
			c-10.007,1.278-20.081,2.123-30.121,3.187c-0.469,0.041-1.056,0.457-1.296,0.875c-1.057,1.883-2.024,3.831-3.048,5.739
			c-3.017,5.717-6.032,11.43-9.081,17.125c-0.431,0.777-0.431,1.397,0.032,2.183c5.278,9.064,10.537,18.168,15.774,27.268
			c0.411,0.715,0.868,0.998,1.7,0.934C168.335,196.322,169.591,196.387,170.848,196.387z M174.167,86.55
			c-0.014-0.06-0.025-0.138-0.025-0.184c-6.431,0.627-12.866,1.301-19.3,1.93c-0.748,0.072-1.065,0.411-1.305,1.084
			c-2.963,8.941-5.965,17.864-8.896,26.818c-0.144,0.436,0.028,1.166,0.333,1.491c1.784,2.037,3.696,3.961,5.487,5.964
			c3.771,4.201,7.532,8.394,11.206,12.651c0.687,0.794,1.261,1.071,2.307,0.965c9.952-1.071,19.92-2.133,29.889-3.053
			c2.128-0.192,3.544-0.79,3.867-3.044c0.087-0.487,0.405-0.917,0.584-1.396c1.943-5.234,3.875-10.474,5.84-15.701
			c0.263-0.682,0.172-1.121-0.332-1.664c-1.361-1.478-2.658-3.009-3.982-4.504c-5.39-6.08-10.832-12.142-16.204-18.242
			c-2.658-3.035-2.631-3.068-6.725-3.116C176.005,86.538,175.086,86.55,174.167,86.55z M151.254,212.817
			c0.222-0.214,0.65-0.483,0.95-0.887c2.968-4.015,5.897-8.067,8.9-12.063c0.504-0.702,0.564-1.171,0.119-1.888
			c-1.156-1.875-2.24-3.795-3.353-5.713c-4.02-6.925-8.027-13.846-11.997-20.798c-0.463-0.789-1.031-1.071-1.877-1.192
			c-8.795-1.236-17.513-2.962-26.125-5.174c-0.86-0.222-1.271,0.03-1.707,0.731c-4.174,6.587-8.373,13.168-12.593,19.723
			c-0.43,0.679-0.344,1.156,0,1.806c3.518,6.474,7.504,12.605,12.143,18.313c0.41,0.494,1.11,0.917,1.733,1.015
			c7.744,1.452,15.508,2.831,23.26,4.21C144.114,211.506,147.532,212.134,151.254,212.817z M95.647,116.993
			c0.575,0.432,1.091,0.901,1.659,1.252c5.016,2.98,10.061,5.931,15.075,8.94c0.714,0.432,1.183,0.397,1.892-0.059
			c7.156-4.544,14.609-8.557,22.494-11.701c2.447-0.989,4.373-2.117,4.59-4.991c0.013-0.204,0.151-0.379,0.225-0.575
			c2.426-7.289,4.866-14.561,7.256-21.866c0.104-0.325-0.107-0.978-0.385-1.183c-4.327-3.185-9.121-5.512-14.113-7.457
			c-0.266-0.098-0.643-0.023-0.933,0.087c-1.992,0.755-3.988,1.469-5.935,2.335c-7.672,3.462-14.522,8.143-20.606,13.953
			c-2.025,1.947-4.022,3.892-5.161,6.521c-1.48,3.407-2.936,6.817-4.363,10.247C96.765,113.881,96.288,115.281,95.647,116.993z
			 M92.87,121.328c-1.747,2.736-3.487,5.427-5.165,8.142c-0.603,0.995-1.323,2.016-1.542,3.114
			c-0.64,3.313-1.243,6.652-1.553,10.008c-0.893,10.106,0.324,19.988,3.57,29.591c0.292,0.822,0.802,1.652,1.416,2.267
			c1.131,1.167,2.349,2.263,3.633,3.249c2.088,1.605,4.277,3.108,6.453,4.667c0.406-0.529,0.661-0.807,0.848-1.131
			c4.247-6.618,8.472-13.257,12.679-19.927c0.21-0.337,0.303-0.871,0.23-1.269c-0.298-1.937-0.714-3.855-1.024-5.793
			c-1.065-6.977-1.674-13.997-1.634-21.073c0-1.037-0.409-1.554-1.258-2.043c-2.921-1.68-5.793-3.434-8.708-5.149
			C98.233,124.466,95.647,122.946,92.87,121.328z M200.926,208.167c8.022-5.772,14.457-12.797,19.517-21.092
			c6.06-9.946,9.59-20.7,10.518-32.506c-4.525,3.458-9.307,6.049-14.24,8.41c-0.58,0.287-1.151,0.854-1.454,1.423
			c-5.271,9.757-10.484,19.559-15.794,29.286c-0.974,1.773-1.409,3.382-0.529,5.261c0.264,0.559,0.356,1.195,0.463,1.819
			C199.914,203.146,200.397,205.555,200.926,208.167z M224.636,118.236c-8.247-17.532-21.195-29.918-39.084-37.601
			c-0.03,1.576-0.744,2.935,0.308,4.168c1.296,1.507,2.633,2.998,3.949,4.491c5.549,6.239,11.078,12.455,16.592,18.719
			c1.145,1.281,2.289,2.472,4.042,3.002c1.383,0.43,2.721,1.037,4.016,1.71C217.805,114.487,221.104,116.318,224.636,118.236z
			 M160.179,221.852c-2.13-0.915-4.281-1.82-6.416-2.733c-1.263-0.521-2.474-1.263-3.79-1.517c-8.966-1.672-17.95-3.27-26.945-4.866
			c-0.285-0.039-0.562-0.005-0.86-0.005C133.982,219.507,146.665,222.512,160.179,221.852z"/>
	</g>
</g>
</svg>
